<?xml version="1.0" encoding="utf-8"?>
<!-- Generator: Adobe Illustrator 18.1.0, SVG Export Plug-In . SVG Version: 6.00 Build 0)  -->
<svg version="1.1" id="Layer_1" xmlns="http://www.w3.org/2000/svg" xmlns:xlink="http://www.w3.org/1999/xlink" x="0px" y="0px"
	 viewBox="-98 189 415 415" enable-background="new -98 189 415 415" xml:space="preserve">
<g>
	<g id="XMLID_1_">
		<g>
			<polygon fill="#FFFFFF" points="270.4,320.9 270.4,334.4 216.6,334.4 216.6,388.1 203.1,388.1 203.1,334.4 149.4,334.4 
				149.4,320.9 203.1,320.9 203.1,267.1 216.6,267.1 216.6,320.9 			"/>
			<path fill="#FFFFFF" d="M126.1,267.1l-18.6,13.4H81.2c17.5,6.7,26.8,27.1,26.8,48c0,17.6-9.7,32.7-23.5,43.4
				c-13.4,10.5-15.9,14.9-15.9,23.8c0,7.6,14.4,20.5,21.9,25.8c22,15.5,29.1,30,29.1,54c0,30-29.1,59.9-81.7,59.9
				c-46.2,0-85.1-18.8-85.1-48.8c0-30.5,35.5-59.9,81.7-59.9c5,0,9.6-0.1,14.4-0.1c-6.3-6.2-11.3-13.7-11.3-23
				c0-5.5,1.8-10.8,4.2-15.5c-2.5,0.2-5.1,0.2-7.7,0.2c-37.9,0-63.3-27-63.3-60.4c0-32.7,35.1-60.9,72.3-60.9
				C63.8,267.1,126.1,267.1,126.1,267.1z M98.1,479c0-2.9-0.4-5.8-1-8.6c-3.5-13.7-15.9-20.5-33.2-32.6c-6.3-2-13.2-3.2-20.7-3.3
				c-31.9-0.3-60.5,19.5-60.5,43.2c0,24.3,23,44.4,54.9,44.4C82.5,522.2,98.1,503.3,98.1,479z M46,380c21.4,0.6,35.8-21.6,32.1-49.8
				c-3.7-28.1-24-50.7-45.5-51.3c-21.4-0.6-35.8,20.9-32.1,49C4.3,356,24.6,379.3,46,380z"/>
		</g>
		<g>
		</g>
	</g>
</g>
</svg>
