<?xml version="1.0" encoding="utf-8"?>
<!-- Generator: Adobe Illustrator 18.1.0, SVG Export Plug-In . SVG Version: 6.00 Build 0)  -->
<svg version="1.1" id="Layer_1" xmlns="http://www.w3.org/2000/svg" xmlns:xlink="http://www.w3.org/1999/xlink" x="0px" y="0px"
	 viewBox="-98 189 415 415" enable-background="new -98 189 415 415" xml:space="preserve">
<g id="XMLID_1_">
	<g>
		<path fill="#FFFFFF" d="M73.5,435.2c1.1,1.7,3.3,5.3-52.3-68.6c-7.5-10-13.5-18-20.9-28c-30.3-40.8,55.9-103.7,89.6-78.9
			c9.8,7.2,119.1,151.5,120.8,164c4.6,32.6,12.3,84.2,14.4,115.2c-27.3-12.7-65.7-28.5-94.2-40.6c-12.8-5.5-15-4.6-21.1-13
			C81.8,446.8,74.8,437.1,73.5,435.2z M195,498.7c2.9-2.1,5.7-2.9,8.5-4.6c-0.7-8.8-8.4-65.4-11-68.9c-20.2,8.9-24.2,11.9-49.5,6.6
			c-0.2,11.7,0.5,15.8-3.1,26.7c-2.6,8-7.8,14.6-9.7,21.1l58.1,26C191.4,502.9,191.3,501.5,195,498.7z M143.6,423.8
			c15.6,5.5,31.9,2.4,44.4-4.5c-3.1-6.3-54.8-74-62.6-84.7l-12.7-17.1c-6.8-6.8-34.7,12.6-39.9,14.5c1.2,4.3,19.3,27.3,23,32.3
			c7.6,10.2,14.9,20.1,22.7,30.5C123.9,402.1,135.6,421,143.6,423.8z M133.1,455.9c5.8-20.5,0.5-29.8-8.4-41.9l-34.5-46.3
			c-4.1-5.5-19.8-27.5-23.2-29.8c-5.5,5.1-27.2,25-20.1,34.8c8.8,12,16.9,22.4,25.5,34.1l47.7,63.9c1.4,1.8,1.8,2.3,3.2,3.5
			c0.2-0.2,0.5-0.4,0.6-0.6l1.1-1.2c0.2-0.2,0.4-0.4,0.5-0.6c1.2-1.5,0.4-0.4,1.3-1.9c1-1.6,1.5-2.5,2.3-4.1
			C130.9,462.7,132.1,459.5,133.1,455.9z M93.1,307.1l9.5-1.9c-0.4-2.9-11.3-16.8-14.3-19.6l-7.7,1.8c-8.3,1.4-18.1,7-24.3,10.7
			c-10.5,6.1-31.6,25.3-34.4,40.8c3.9,6.2,8.6,12.5,13.3,17.4l2-2.6c6.8-11,11.2-19.7,22.7-28.3c2.9-2.2,8-5.3,10.1-8.3
			C73.5,316.3,87.2,309.4,93.1,307.1z M78.7,274C50.1,262.7,7.5,297.8,12.1,325c1.7-0.9,7.2-11.3,11.5-16.8
			C43.8,281.9,75.4,276.4,78.7,274z"/>
		<path fill="#FFFFFF" d="M187.9,419.4c-12.4,6.9-28.8,10-44.4,4.5c-7.9-2.8-19.6-21.7-25.1-29.1c-7.8-10.4-15.1-20.3-22.7-30.5
			c-3.7-5-21.8-27.9-23-32.3c5.2-1.9,33.1-21.3,39.9-14.5l12.7,17.1C133.2,345.4,184.9,413.1,187.9,419.4z"/>
		<path fill="#FFFFFF" d="M124.8,414c8.8,12.1,14.2,21.4,8.4,41.9c-1,3.5-2.2,6.8-3.9,9.9c-0.8,1.6-1.3,2.5-2.3,4.1
			c-1,1.5-0.2,0.4-1.3,1.9c-0.1,0.2-0.4,0.4-0.5,0.6l-1.1,1.2c-0.1,0.1-0.4,0.4-0.6,0.6c-1.3-1.2-1.8-1.7-3.2-3.5l-47.7-63.9
			c-8.6-11.7-16.8-22-25.5-34.1c-7.1-9.8,14.6-29.6,20.1-34.8c3.4,2.4,19.1,24.3,23.2,29.8L124.8,414z"/>
	</g>
	<g>
	</g>
</g>
</svg>
