<?xml version="1.0" encoding="utf-8"?>
<!-- Generator: Adobe Illustrator 18.1.0, SVG Export Plug-In . SVG Version: 6.00 Build 0)  -->
<svg version="1.1" id="Layer_1" xmlns="http://www.w3.org/2000/svg" xmlns:xlink="http://www.w3.org/1999/xlink" x="0px" y="0px"
	 viewBox="-98 189 415 415" enable-background="new -98 189 415 415" xml:space="preserve">
<g id="XMLID_1_">
	<g>
		<path fill="#FFFFFF" d="M197.8,479.2l0,44.8c-8.5,5.3-29.5,11.9-41.3,13.9c-16.1,2.7-35.4,2.8-51.4-1
			c-15.6-3.7-28.1-10.6-36.6-19.5c-1.1-1.2-2.2-1.8-3.3-3.1c-9-10-11.9-23.3-12-37.1L53,371l-31.7-0.3V330
			c20.4-4.6,38.5-21.5,48.1-39.8c6.1-11.7,6.9-20.6,9.7-34.1c0.8-4,3.2-2.6,8-2.6h32.8l0.3,72.3l68,0.2v44.8l-67.7,0
			c-0.1,1.3-0.1,81.1,0.7,87.6c0.8,18.7,7.9,32.1,28.1,34.3C174.6,495.4,193.4,480.2,197.8,479.2z"/>
	</g>
	<g>
	</g>
</g>
</svg>
