<?xml version="1.0" encoding="utf-8"?>
<!-- Generator: Adobe Illustrator 18.1.0, SVG Export Plug-In . SVG Version: 6.00 Build 0)  -->
<svg version="1.1" id="Layer_1" xmlns="http://www.w3.org/2000/svg" xmlns:xlink="http://www.w3.org/1999/xlink" x="0px" y="0px"
	 viewBox="-98 189 415 415" enable-background="new -98 189 415 415" xml:space="preserve">
<g id="XMLID_1_">
	<g>
		<path fill="#FFFFFF" d="M247.4,316.1c-7.3,10.9-16.5,20.5-27.1,28.2c0.1,2.3,0.2,4.7,0.2,7c0,71.9-54.7,154.8-154.8,154.8
			c-30.7,0-59.3-9-83.4-24.4c4.3,0.5,8.6,0.8,13,0.8c25.5,0,48.9-8.7,67.6-23.3C39,458.6,18.9,442.9,12,421.3c3.3,0.6,6.7,1,10.2,1
			c5,0,9.8-0.7,14.3-1.9c-24.9-5-43.6-27-43.6-53.3c0-0.2,0-0.5,0-0.7c7.3,4.1,15.7,6.5,24.6,6.8c-14.6-9.8-24.2-26.4-24.2-45.3
			c0-10,2.7-19.3,7.4-27.3c26.8,32.9,66.9,54.6,112.1,56.8c-0.9-4-1.4-8.1-1.4-12.4c0-30,24.3-54.4,54.4-54.4
			c15.6,0,29.8,6.6,39.7,17.2c12.4-2.4,24-7,34.5-13.2c-4.1,12.7-12.7,23.4-23.9,30.1C227.1,323.3,237.6,320.4,247.4,316.1z"/>
	</g>
	<g>
	</g>
</g>
</svg>
