<?xml version="1.0" encoding="utf-8"?>
<!-- Generator: Adobe Illustrator 18.1.0, SVG Export Plug-In . SVG Version: 6.00 Build 0)  -->
<svg version="1.1" id="Layer_1" xmlns="http://www.w3.org/2000/svg" xmlns:xlink="http://www.w3.org/1999/xlink" x="0px" y="0px"
	 viewBox="-98 189 415 415" enable-background="new -98 189 415 415" xml:space="preserve">
<g id="XMLID_1_">
	<g>
		<path fill="#FFFFFF" d="M185.6,397.7c11.3,11.5,13.4,22,13.4,40.1c0,41.9-40.5,62.9-79.5,62.9H25.6L26,283.8h98.5
			c32.4,0,60,15.9,60,48c0,26.8-9.7,37.2-29.7,49c1.7,1.4,13.1,4.8,17,6.7C178,390.5,181.6,393.6,185.6,397.7z M142.3,433.8
			c0.6-32.9-35.3-27-62.7-27l0,54C107.4,460.8,141.7,465.4,142.3,433.8z M128.8,344.8c0-25.5-27-21.3-49.2-21.3l0,17.3l0,28.2
			C104.9,369,128.8,372.3,128.8,344.8z"/>
	</g>
	<g>
	</g>
</g>
</svg>
