<?xml version="1.0" encoding="utf-8"?>
<!-- Generator: Adobe Illustrator 18.1.0, SVG Export Plug-In . SVG Version: 6.00 Build 0)  -->
<svg version="1.1" id="Layer_1" xmlns="http://www.w3.org/2000/svg" xmlns:xlink="http://www.w3.org/1999/xlink" x="0px" y="0px"
	 viewBox="-98 189 415 415" enable-background="new -98 189 415 415" xml:space="preserve">
<g id="XMLID_1_">
	<g>
		<path fill="#FFFFFF" d="M269.6,324.7c11.1,50.7,11.1,102,0,152.7c-5.7,25.9-17,34-44.1,34.5c-28.9,0.6-57.8,0.1-86.8,0.1
			c0-0.1,0-0.2,0-0.3c-46.4,0-92.8,0.3-139.2-0.1c-23.3-0.2-33.1-7.6-39.8-31.1c-10.6-37.2-10.4-75.5-7.3-113.7
			c1.3-16.2,4-32.5,8.6-48.1c6.3-21.2,16.6-28.1,38.6-28.2c75.3-0.4,150.6-0.6,225.9-0.3C252.4,290.2,263.9,298.7,269.6,324.7z
			 M81.2,462c32.4-20.9,62.3-40.1,95-61.3c-32.9-21.3-62.8-40.6-95-61.4C81.2,381.3,81.2,419.6,81.2,462z"/>
	</g>
	<g>
	</g>
</g>
</svg>
